<svg width="104" height="28" viewBox="0 0 104 28" fill="none" xmlns="http://www.w3.org/2000/svg">
<path d="M1.1714 0.263199C0.777052 0.306378 0.386604 0.349558 6.10352e-05 0.404514V13.7863C0.386604 13.7352 0.777052 13.6881 1.1714 13.6449V0.263199Z" fill="#28281F"/>
<path d="M4.13155 13.4445V0.0470123C3.7411 0.062714 3.34675 0.0784157 2.96021 0.105894V13.5033C3.35065 13.4798 3.7372 13.4602 4.13155 13.4445Z" fill="#28281F"/>
<path d="M7.09462 13.4249V0.00786609C6.79398 0.00394068 6.48943 1.52588e-05 6.18097 1.52588e-05C6.09508 1.52588e-05 6.00918 1.52588e-05 5.92328 0.00394068V13.4092C6.31763 13.4092 6.70808 13.4171 7.09462 13.4249Z" fill="#28281F"/>
<path d="M10.0548 13.5935V0.148939C9.67213 0.117536 9.27778 0.0939832 8.88342 0.0743561V13.5032C9.27778 13.5268 9.66822 13.5582 10.0548 13.5935Z" fill="#28281F"/>
<path d="M13.0134 13.959V0.483021C12.6308 0.428065 12.2403 0.377034 11.8421 0.326004V13.7863C12.2403 13.8373 12.6308 13.8962 13.0134 13.959Z" fill="#28281F"/>
<path d="M15.9775 14.5634V1.04429C15.5949 0.95401 15.2083 0.871576 14.8062 0.789143V14.2887C15.2044 14.375 15.5949 14.4653 15.9775 14.5595V14.5634Z" fill="#28281F"/>
<path d="M18.9366 15.4899V1.904C18.5618 1.77053 18.1713 1.64099 17.7653 1.51931V15.0777C18.1713 15.2072 18.5618 15.3446 18.9366 15.4899Z" fill="#28281F"/>
<path d="M21.8968 16.9461V3.23859C21.5376 3.03054 21.1432 2.82642 20.7254 2.63015V16.2749C21.1432 16.4869 21.5337 16.7106 21.8968 16.9422V16.9461Z" fill="#28281F"/>
<path d="M23.6885 4.55361C24.3327 5.17775 24.7344 5.82584 24.8594 6.47353V19.9755C24.75 19.4088 24.4292 18.8418 23.9189 18.2909L23.6885 18.0556V4.55361Z" fill="#28281F"/>
<g opacity="0.5">
<path d="M7.0942 13.4092H5.92285V28C6.3172 28 6.70765 27.9922 7.0942 27.9804V13.4053V13.4092Z" fill="url(#paint0_linear_3209_9228)"/>
<path d="M10.0542 13.425H8.88287V27.9019C9.27723 27.8744 9.66767 27.847 10.0542 27.8116V13.4289V13.425Z" fill="url(#paint1_linear_3209_9228)"/>
<path d="M13.0129 13.7826H11.8416V27.6118C12.2359 27.5608 12.6303 27.5019 13.0129 27.443V13.7865V13.7826Z" fill="url(#paint2_linear_3209_9228)"/>
<path d="M15.9775 14.1393H14.8061V27.1128C15.2044 27.0304 15.5948 26.9401 15.9775 26.8459V14.1393Z" fill="url(#paint3_linear_3209_9228)"/>
<path d="M18.9361 14.9285H17.7648V26.3475C18.1708 26.2219 18.5574 26.0884 18.9361 25.951V14.9285Z" fill="url(#paint4_linear_3209_9228)"/>
<path d="M21.8963 16.1572H20.7249V25.2014C21.1427 25.0012 21.5331 24.7931 21.8963 24.5772V16.1572Z" fill="url(#paint5_linear_3209_9228)"/>
<path d="M23.6879 18.0559C24.3321 18.68 24.7338 19.3281 24.8588 19.9758V21.1926C24.7299 21.8991 24.3281 22.5821 23.6879 23.2258V18.0559Z" fill="url(#paint6_linear_3209_9228)"/>
</g>
<path d="M40.1518 19.4621H42.6861C45.6969 19.4621 47.4731 17.4693 47.4731 14.3502C47.4731 11.231 45.6969 9.21661 42.6861 9.21661H40.1518V19.4621ZM38.4406 21V7.70036H42.7077C46.6066 7.70036 49.1626 10.2996 49.1626 14.3502C49.1626 18.4007 46.6066 21 42.7077 21H38.4406ZM56.4956 15.8664V14.6101C56.4956 13.4188 55.6075 12.6823 54.1995 12.6823C53.1382 12.6823 52.2717 13.0072 51.4703 13.5271V11.9892C52.1201 11.5343 53.2681 11.1877 54.4595 11.1877C56.7338 11.1877 58.0768 12.444 58.0768 14.4801V21H56.4956V20.2852C56.1273 20.6751 55.1309 21.1733 54.0046 21.1733C52.0335 21.1733 50.4306 20.0036 50.4306 18.0975C50.4306 16.2996 52.0335 15.0866 54.0912 15.0866C55.0876 15.0866 56.084 15.4982 56.4956 15.8664ZM56.4956 18.6173V17.6209C56.2356 16.9061 55.2826 16.4296 54.2645 16.4296C53.0948 16.4296 51.9685 16.9495 51.9685 18.0975C51.9685 19.2671 53.0948 19.8087 54.2645 19.8087C55.2826 19.8087 56.2356 19.3321 56.4956 18.6173ZM64.3662 21H62.7633L59.0376 11.3827H60.7922L63.608 18.9422L66.4023 11.3827H68.1135L64.3662 21ZM71.5808 11.3827V21H69.9563V11.3827H71.5808ZM71.8191 8.48015C71.8191 9.04332 71.3426 9.51986 70.7577 9.51986C70.1946 9.51986 69.718 9.04332 69.718 8.48015C69.718 7.89531 70.1946 7.44044 70.7577 7.44044C71.3426 7.44044 71.8191 7.89531 71.8191 8.48015ZM80.3964 21V19.8736C79.9199 20.5668 78.8801 21.1949 77.6888 21.1949C74.8729 21.1949 73.3567 18.9206 73.3567 16.1913C73.3567 13.4838 74.8729 11.1877 77.6888 11.1877C78.8801 11.1877 79.9199 11.8159 80.3964 12.509V6.92058H82.0426V21H80.3964ZM80.3964 18.1408V14.2419C79.8982 13.2455 78.9451 12.6607 77.9271 12.6607C76.0859 12.6607 75.0029 14.1552 75.0029 16.1913C75.0029 18.2274 76.0859 19.722 77.9271 19.722C78.9451 19.722 79.8982 19.1372 80.3964 18.1408ZM91.5225 7.70036H93.1254L98.324 21H96.5911L95.0532 16.9928H89.5731L88.0568 21H86.324L91.5225 7.70036ZM92.3023 9.82311L90.1362 15.4982H94.4684L92.3023 9.82311ZM102.065 7.70036V21H100.354V7.70036H102.065Z" fill="#28281F"/>
<defs>
<linearGradient id="paint0_linear_3209_9228" x1="6.50852" y1="11.7757" x2="6.50852" y2="28" gradientUnits="userSpaceOnUse">
<stop stop-color="#28281F" stop-opacity="0"/>
<stop offset="0.65" stop-color="#28281F"/>
</linearGradient>
<linearGradient id="paint1_linear_3209_9228" x1="9.46855" y1="11.8085" x2="9.46855" y2="27.9019" gradientUnits="userSpaceOnUse">
<stop stop-color="#28281F" stop-opacity="0"/>
<stop offset="0.65" stop-color="#28281F"/>
</linearGradient>
<linearGradient id="paint2_linear_3209_9228" x1="12.4272" y1="12.2384" x2="12.4272" y2="27.6118" gradientUnits="userSpaceOnUse">
<stop stop-color="#28281F" stop-opacity="0"/>
<stop offset="0.65" stop-color="#28281F"/>
</linearGradient>
<linearGradient id="paint3_linear_3209_9228" x1="15.3918" y1="12.6907" x2="15.3918" y2="27.1128" gradientUnits="userSpaceOnUse">
<stop stop-color="#28281F" stop-opacity="0"/>
<stop offset="0.65" stop-color="#28281F"/>
</linearGradient>
<linearGradient id="paint4_linear_3209_9228" x1="18.3504" y1="13.6534" x2="18.3504" y2="26.3475" gradientUnits="userSpaceOnUse">
<stop stop-color="#28281F" stop-opacity="0"/>
<stop offset="0.65" stop-color="#28281F"/>
</linearGradient>
<linearGradient id="paint5_linear_3209_9228" x1="21.3106" y1="15.1473" x2="21.3106" y2="25.2014" gradientUnits="userSpaceOnUse">
<stop stop-color="#28281F" stop-opacity="0"/>
<stop offset="0.65" stop-color="#28281F"/>
</linearGradient>
<linearGradient id="paint6_linear_3209_9228" x1="24.2733" y1="17.4786" x2="24.2733" y2="23.2258" gradientUnits="userSpaceOnUse">
<stop stop-color="#28281F" stop-opacity="0"/>
<stop offset="0.65" stop-color="#28281F"/>
</linearGradient>
</defs>
</svg>
